<?xml version="1.0" encoding="UTF-8"?>
<svg id="Capa_2" xmlns="http://www.w3.org/2000/svg" viewBox="0 0 396.85 232.67">
  <defs>
    <style>
      .cls-1 {
        fill: #fff;
      }
    </style>
  </defs>
  <g id="Icono_1_tinta">
    <g id="Icono_1_tinta_blanco">
      <g>
        <path class="cls-1" d="M290.74,0c-59.38,0-115.85,38.45-115.85,117.31s52.57,115.36,118.77,115.36c46.71,0,75.19-19.22,88.5-31.38,5.12-4.68,4.99-12.77-.3-17.25l-20.98-17.75c-4.06-3.44-9.98-3.66-14.23-.47-8.88,6.69-25.36,14.28-48.61,14.28s-40.61-7.54-49.17-29.53c-1.79-4.59-2.91-9.39-3.47-14.27h139.74c6.14,0,11.18-4.84,11.46-10.97.14-3.15.25-6.75.25-10.44C396.85,40.4,352.07,0,290.74,0ZM245.09,96.38c.35-6.76,1.71-13.45,4.2-19.76,7.05-17.82,20.13-26.97,39.02-26.97,24.82,0,39.43,15.58,39.43,42.84v3.89h-82.64Z"/>
        <path class="cls-1" d="M198.99,41.46C177.48,13.93,142.77,0,103.19,0,56.48,0,28,19.22,14.69,31.38c-5.12,4.68-4.99,12.77.3,17.25l20.98,17.75c4.06,3.44,9.98,3.66,14.23.47,8.88-6.69,25.36-14.28,48.61-14.28s40.61,7.54,49.17,29.53c1.79,4.59,2.91,9.39,3.47,14.27H11.71c-6.14,0-11.18,4.84-11.46,10.97-.14,3.15-.25,6.75-.25,10.44,0,74.47,44.78,114.87,106.11,114.87,33.21,0,65.5-12.03,87.52-36.42-13.12-18.31-22.57-45.32-22.57-74.34,0-34.49,10.8-61.25,27.93-80.45ZM147.56,156.05c-7.05,17.82-20.13,26.97-39.02,26.97-24.82,0-39.43-15.58-39.43-42.84v-3.89h82.64c-.35,6.76-1.71,13.45-4.2,19.76Z"/>
      </g>
    </g>
  </g>
</svg>