<?xml version="1.0" encoding="UTF-8"?>
<svg id="Capa_2" xmlns="http://www.w3.org/2000/svg" viewBox="0 0 419.53 126.56">
  <defs>
    <style>
      .cls-1 {
        fill: #fff;
      }
    </style>
  </defs>
  <g id="Logotipo_ancho_1_tinta">
    <g id="Blanco">
      <g>
        <g>
          <g>
            <path class="cls-1" d="M255.9,54.86l-.61-3.03s-3.21,3.76-8.67,3.76-9.76-3.58-9.76-9.03,4.43-8.49,10.97-8.49c3.82,0,7.46,1.03,7.46,1.03v-1.94c0-4-2.85-5.46-6.49-5.46-5.58,0-8.06,3.52-8.06,3.52l-3.15-3.03s3.52-4.85,11.7-4.85c7.09,0,11.03,3.15,11.03,10.37v17.16h-4.43ZM255.3,43.22s-3.4-.91-7.09-.91c-3.88,0-6.12,1.03-6.12,4.18s2.24,4.85,5.52,4.85c3.09,0,6.06-1.51,7.7-3.27v-4.85Z"/>
            <path class="cls-1" d="M262.75,54.86V12.42h5.09v42.44h-5.09Z"/>
            <path class="cls-1" d="M293.25,50.01s-3.4,5.58-11.28,5.58c-7.4,0-13.09-4.85-13.09-13.94s6.18-14.31,13.28-14.31,12.19,4.67,12.19,15.34h-20.25c0,5.27,2.85,8.55,8,8.55,5.52,0,7.76-3.82,7.76-3.82l3.4,2.61ZM289,38.55c-.48-4.67-3.33-7.21-7.21-7.21s-6.91,2.55-7.52,7.21h14.73Z"/>
            <path class="cls-1" d="M290.88,62.8c3.64-.36,4.06-2,4.06-5.4v-29.34h5.09v30.07c0,5.94-3.03,9.21-9.15,9.21v-4.55ZM293.79,18.97c0-2.18,1.7-3.76,3.76-3.76s3.76,1.58,3.76,3.76-1.7,3.76-3.76,3.76-3.76-1.58-3.76-3.76Z"/>
            <path class="cls-1" d="M319.8,54.86l-.61-3.03s-3.21,3.76-8.67,3.76-9.76-3.58-9.76-9.03,4.43-8.49,10.97-8.49c3.82,0,7.46,1.03,7.46,1.03v-1.94c0-4-2.85-5.46-6.49-5.46-5.58,0-8.06,3.52-8.06,3.52l-3.15-3.03s3.52-4.85,11.7-4.85c7.09,0,11.03,3.15,11.03,10.37v17.16h-4.43ZM319.19,43.22s-3.4-.91-7.09-.91c-3.88,0-6.12,1.03-6.12,4.18s2.24,4.85,5.52,4.85c3.09,0,6.06-1.51,7.7-3.27v-4.85Z"/>
            <path class="cls-1" d="M344.29,54.86v-15.64c0-5.94-2.61-7.15-5.4-7.15s-7.15,2.06-7.15,8.12v14.67h-5.09v-26.8h4.49l.61,3.76s2.61-4.49,8.49-4.49c5.33,0,9.15,3.27,9.15,9.94v17.58h-5.09Z"/>
            <path class="cls-1" d="M372.18,54.86l-.61-3.64s-2.12,4.37-8.67,4.37c-8.24,0-12.79-6.79-12.79-14s4.85-14.25,12.97-14.25c6.55,0,8.49,4.36,8.49,4.36V12.42h5.09v42.44h-4.49ZM371.69,41.46c0-5.33-2.43-9.76-7.94-9.76s-8.43,4.43-8.43,9.76,2.91,9.76,8.43,9.76,7.94-4.42,7.94-9.76Z"/>
            <path class="cls-1" d="M379.33,54.86v-26.8h4.49l.61,4.49s1.21-4.85,6.37-4.85c3.64,0,5.03,2.55,5.03,2.55l-2.67,4.24s-1.21-1.7-3.76-1.7-4.97,1.82-4.97,8.12v13.94h-5.09Z"/>
            <path class="cls-1" d="M392.24,41.46c0-7.46,4.61-14.12,13.64-14.12s13.64,6.67,13.64,14.12-4.61,14.12-13.64,14.12-13.64-6.67-13.64-14.12ZM414.31,41.46c0-5.4-2.91-9.76-8.43-9.76s-8.43,4.37-8.43,9.76,2.91,9.76,8.43,9.76,8.43-4.36,8.43-9.76Z"/>
          </g>
          <g>
            <path class="cls-1" d="M261.54,103.63s-3.4,5.58-11.28,5.58c-7.4,0-13.09-4.85-13.09-13.94s6.18-14.31,13.28-14.31,12.19,4.67,12.19,15.34h-20.25c0,5.27,2.85,8.55,8,8.55,5.52,0,7.76-3.82,7.76-3.82l3.4,2.61ZM257.3,92.17c-.48-4.67-3.33-7.21-7.21-7.21s-6.91,2.55-7.52,7.21h14.73Z"/>
            <path class="cls-1" d="M269.3,96.29c-3.82-1.27-7.27-3.27-7.27-7.64s3.64-7.7,9.76-7.7c6.73,0,9.88,3.94,9.88,3.94l-2.67,3.39s-2.42-3.21-7.52-3.21c-2.61,0-4.61.85-4.61,3.03s1.88,3.03,5.21,4.18l2.42.85c3.64,1.27,7.4,3.21,7.4,8s-3.58,8.06-10.06,8.06c-7.94,0-10.85-5.03-10.85-5.03l2.79-3.27s2.49,4.18,8,4.18c2.85,0,5.15-1.09,5.15-3.64,0-2.24-1.76-3.21-5.09-4.3l-2.55-.85Z"/>
            <path class="cls-1" d="M306.89,103.5s-3.46,5.7-12,5.7c-9.4,0-13.76-6.85-13.76-14.37,0-9.46,6.97-13.88,14.06-13.88,8.06,0,11.46,5.7,11.46,5.7l-3.21,3.21s-2.18-4.3-8.37-4.3c-5.33,0-8.73,3.21-8.73,9.28,0,5.33,2.61,9.76,8.91,9.76s8.43-4.3,8.43-4.3l3.21,3.21Z"/>
            <path class="cls-1" d="M305.25,95.08c0-7.46,4.61-14.12,13.64-14.12s13.64,6.67,13.64,14.12-4.61,14.12-13.64,14.12-13.64-6.67-13.64-14.12ZM327.32,95.08c0-5.4-2.91-9.76-8.43-9.76s-8.43,4.37-8.43,9.76,2.91,9.76,8.43,9.76,8.43-4.36,8.43-9.76Z"/>
            <path class="cls-1" d="M333.5,108.47v-42.44h5.09v18.98s2.43-4.06,8.67-4.06c8.06,0,12.79,6.79,12.79,14.12s-4.73,14.12-13.09,14.12c-6.3,0-8.37-4.37-8.37-4.37l-.61,3.64h-4.49ZM354.84,95.08c0-5.33-2.91-9.76-8.43-9.76s-7.94,4.43-7.94,9.76,2.42,9.76,7.94,9.76,8.43-4.42,8.43-9.76Z"/>
            <path class="cls-1" d="M378.06,108.47l-.61-3.03s-3.21,3.76-8.67,3.76-9.76-3.58-9.76-9.03,4.43-8.49,10.97-8.49c3.82,0,7.46,1.03,7.46,1.03v-1.94c0-4-2.85-5.46-6.49-5.46-5.58,0-8.06,3.52-8.06,3.52l-3.15-3.03s3.52-4.85,11.7-4.85c7.09,0,11.03,3.15,11.03,10.37v17.16h-4.43ZM377.45,96.83s-3.4-.91-7.09-.91c-3.88,0-6.12,1.03-6.12,4.18s2.24,4.85,5.52,4.85c3.09,0,6.06-1.51,7.7-3.27v-4.85Z"/>
            <path class="cls-1" d="M384.91,108.47v-26.8h4.49l.61,4.49s1.21-4.85,6.37-4.85c3.64,0,5.03,2.55,5.03,2.55l-2.67,4.24s-1.21-1.7-3.76-1.7-4.97,1.82-4.97,8.12v13.94h-5.09Z"/>
          </g>
        </g>
        <g>
          <path class="cls-1" d="M158.15,0c-32.3,0-63.01,20.92-63.01,63.81s28.6,62.75,64.6,62.75c25.41,0,40.9-10.45,48.14-17.07,2.78-2.55,2.72-6.95-.16-9.38l-11.41-9.66c-2.21-1.87-5.43-1.99-7.74-.25-4.83,3.64-13.79,7.77-26.44,7.77s-22.09-4.1-26.75-16.07c-.97-2.5-1.58-5.11-1.89-7.76h76.01c3.34,0,6.08-2.63,6.23-5.97.08-1.71.14-3.67.14-5.68,0-40.51-24.36-62.48-57.72-62.48ZM133.32,52.42c.19-3.68.93-7.32,2.29-10.75,3.83-9.69,10.95-14.67,21.22-14.67,13.5,0,21.45,8.47,21.45,23.3v2.12h-44.95Z"/>
          <path class="cls-1" d="M108.24,22.55C96.54,7.58,77.66,0,56.13,0,30.72,0,15.23,10.45,7.99,17.07c-2.78,2.55-2.72,6.95.16,9.38l11.41,9.66c2.21,1.87,5.43,1.99,7.74.25,4.83-3.64,13.79-7.77,26.44-7.77s22.09,4.1,26.75,16.07c.97,2.5,1.58,5.11,1.89,7.76H6.37c-3.34,0-6.08,2.63-6.23,5.97-.08,1.71-.14,3.67-.14,5.68,0,40.51,24.36,62.48,57.72,62.48,18.06,0,35.63-6.54,47.61-19.81-7.14-9.96-12.28-24.65-12.28-40.44,0-18.76,5.88-33.32,15.19-43.76ZM80.26,84.88c-3.83,9.69-10.95,14.67-21.22,14.67-13.5,0-21.45-8.47-21.45-23.3v-2.12h44.95c-.19,3.68-.93,7.32-2.29,10.75Z"/>
        </g>
      </g>
    </g>
  </g>
</svg>