<?xml version="1.0" encoding="UTF-8"?>
<svg id="Capa_2" xmlns="http://www.w3.org/2000/svg" xmlns:xlink="http://www.w3.org/1999/xlink" viewBox="0 0 719.12 772.74">
  <defs>
    <style>
      .cls-1 {
        mask: url(#mask);
      }

      .cls-2 {
        fill: #006bb0;
      }

      .cls-3 {
        fill: #00aba1;
      }

      .cls-4 {
        fill: #53c1f0;
      }

      .cls-5 {
        fill: url(#New_Gradient_Swatch_13);
      }

      .cls-6 {
        fill: #0083cb;
      }

      .cls-7 {
        fill: #4cb8a4;
      }

      .cls-8 {
        fill: #c6c6c6;
      }

      .cls-9 {
        fill: #83c6a5;
      }
    </style>
    <radialGradient id="New_Gradient_Swatch_13" data-name="New Gradient Swatch 13" cx="-13702.86" cy="96200.02" fx="-13702.86" fy="96200.02" r="376.86" gradientTransform="translate(6226.55 -7613.71) rotate(-90) scale(.61 -.06)" gradientUnits="userSpaceOnUse">
      <stop offset="0" stop-color="#fff"/>
      <stop offset="1" stop-color="#1d1d1b"/>
    </radialGradient>
    <mask id="mask" x="125.79" y="723.94" width="467.66" height="48.8" maskUnits="userSpaceOnUse">
      <ellipse class="cls-5" cx="359.62" cy="748.34" rx="24.3" ry="233.84" transform="translate(-392.13 1100.79) rotate(-89.45)"/>
    </mask>
  </defs>
  <g id="Layer_1">
    <g>
      <g>
        <path class="cls-9" d="M424.22,579.07l61.19,105.99c100.2-78.54,129.98-220.83,64.48-334.28-10.54-18.26-22.97-34.74-36.89-49.36,29.77,100.97-4.71,211.75-88.79,277.65Z"/>
        <path class="cls-7" d="M187.04,516.79l-61.19,105.99c118.12,47.51,256.23,2.15,321.73-111.29,10.54-18.26,18.59-37.26,24.3-56.63-72.56,76.27-185.74,101.8-284.85,61.93Z"/>
        <path class="cls-3" d="M122.39,280.25H0c17.91,126.05,126.25,222.98,257.25,222.98,21.08,0,41.57-2.53,61.2-7.27-102.33-24.7-181.03-109.95-196.06-215.72Z"/>
        <path class="cls-4" d="M294.91,105.99L233.71,0c-100.2,78.54-129.98,220.83-64.48,334.28,10.54,18.26,22.97,34.74,36.89,49.36-29.77-100.97,4.71-211.75,88.79-277.65Z"/>
        <path class="cls-6" d="M532.08,168.26l61.19-105.99c-118.12-47.51-256.23-2.15-321.73,111.29-10.54,18.26-18.59,37.26-24.3,56.63,72.56-76.27,185.74-101.8,284.85-61.93Z"/>
        <path class="cls-2" d="M596.74,404.8h122.39c-17.91-126.05-126.25-222.98-257.25-222.98-21.08,0-41.57,2.53-61.2,7.27,102.33,24.7,181.03,109.95,196.06,215.72Z"/>
      </g>
      <g class="cls-1">
        <ellipse class="cls-8" cx="359.62" cy="748.34" rx="24.3" ry="233.84" transform="translate(-392.13 1100.79) rotate(-89.45)"/>
      </g>
    </g>
  </g>
</svg>