<?xml version="1.0" encoding="UTF-8"?>
<svg version="1.1" viewBox="0 0 2000 2000" width="1280" height="1280" xmlns="http://www.w3.org/2000/svg">
<path transform="translate(0)" d="m0 0h2e3v2e3h-2e3z" fill="#FCFEFE"/>
<path transform="translate(1357,801)" d="m0 0h2l2 9 1 8v13l-3 13-8 16-10 14-11 12-12 11-19 14-20 13-15 9-26 15-21 13-12 9-7 9-3 7-1 5v12l4 13 8 14 11 14 11 11v4l-32-3-28-5-24-6-26-9-23-10-21-11-21-13-17-12-16-13-8-7-26-26-9-11-13-17-15-23-13-24-12-27-7-16v-2l6 1 18 10 25 12 28 11 30 9 28 6 18 3 32 3h36l26-2 29-4 31-7 29-9 25-10 21-10 21-12 16-10 16-11z" fill="#04BEA6"/>
<path transform="translate(859,586)" d="m0 0h39l28 3 25 4 1 2-23 13-17 12-15 11-13 11-11 9-26 26-9 11-13 16-11 16-7 11-10 17-12 23-11 26-11 33-6 24-5 30-3 29v45l2 20v9l-9-2-16-8-8-6-7-7-9-14-7-16-5-17-4-23-2-20-1-21-1-72-2-13-4-10-8-9-9-5-12-3h-21l-33 6 1-5 6-8 11-15 8-10 9-11 5-6 5-5 6-5 5-5 12-11 17-13 14-10 19-12 27-14 25-10 24-8 29-7 25-4z" fill="#09BEE0"/>
<path transform="translate(1251,450)" d="m0 0 13 4 13 7 10 8 7 9 8 14 7 19 5 22 3 26 1 19 2 82 3 13 6 11 7 6 12 5 6 1h17l20-3 12-3h6l-2 5-10 13-8 11-9 11-12 14-18 18-8 7-14 11-12 9-15 10-25 14-23 11-27 10-25 7-23 5-22 3-22 2h-31l-34-4-17-3-2-1 1-3 13-7 18-11 18-13 16-13 14-12 22-22 7-8 13-16 11-15 9-14 8-13 12-22 12-26 12-34 7-27 5-25 3-23 2-31v-15l-2-30-1-12z" fill="#09BEE0"/>
<path transform="translate(772,378)" d="m0 0 17 1 25 3 29 6 26 8 19 7 18 8 16 8 18 10 19 13 13 10 11 9 12 11 18 18 9 11 11 13 16 24 10 17 11 22 13 32v4l-6-2-16-9-16-8-23-10-19-7-24-7-21-5-25-4-28-3-16-1h-19l-28 2-24 3-26 5-26 7-27 9-23 10-17 8-24 14-21 14-7 5h-4l-3-8v-24l4-13 8-16 11-14 15-15 14-11 18-13 26-16 17-10 26-15 14-10 7-7 5-9 3-9v-9l-4-14-6-11-10-13-11-12-5-5z" fill="#09BEE0"/>
<path transform="translate(867,700)" d="m0 0h2l1 31 4 38 6 31 8 29 9 25 12 27 15 28 9 14 14 20 13 16 11 13 11 12 8 8 8 7 14 12 20 15 15 10 17 10 27 14 11 5 5 3v3l-17 13-11 5-9 3-6 1h-16l-19-3-20-6-24-10-16-8-21-11-24-14-22-12-16-7-4-1h-18l-11 5-8 7-7 10-8 17-5 15-2 9h-3l-5-8-13-31-10-31-5-21-4-25-2-16-1-15v-19l1-19 5-34 7-30 12-36 13-28 11-20 10-15 11-16 11-13z" fill="#04BEA5"/>
<path transform="translate(937,344)" d="m0 0h18l18 3 20 6 24 10 30 15 24 14 21 12 16 8 10 4 5 1h9l10-3 9-6 9-10 6-10 5-11 7-22 1-3 4 1 15 35 10 30 7 29 4 28 1 11v50l-4 32-7 31-8 26-10 24-8 17-9 16-10 16-12 17-10 12-7 8-2 1-1-2-1-33-4-36-5-25-7-27-11-32-9-20-8-16-11-20-14-21-14-19-13-15-7-8-21-21-8-7-13-11-18-13-10-7-16-10-11-6-26-13-11-5-1-2 5-5 12-9 10-5z" fill="#09BEE0"/>
<path transform="translate(1357,801)" d="m0 0h2l2 9 1 8v13l-3 13-8 16-10 14-11 12-12 11-19 14-20 13-15 9-7 4-2-1 4-2-2-4-12 3 1-3-5-1-5-2-5 2-13-5-15-3-7-2-31-4-5-1 2-3-16-3-21-3-28-2-25-2-22-1-20-2-15-2h-11l2 2-1 2-28 1-2-3-4-1-2 6h-2l2 6 1 7v3l6 9 4 5-1 2-10-12-20-30-13-24-12-27-7-16v-2l6 1 18 10 25 12 28 11 30 9 28 6 18 3 32 3h36l26-2 29-4 31-7 29-9 25-10 21-10 21-12 16-10 16-11z" fill="#08BEDF"/>
<path transform="translate(867,700)" d="m0 0h2l1 31 4 38 6 31 8 29 9 25 12 27 15 28 9 14 14 20v3l-8-10-11-16-5-9-1-3h-2v-3h-2l-1-4h-2v-4l-4-2-5-8-5-3-2 2-5 1-5-1v-2h-4v-2l-6-1-3-1v3l-26-3-20-1-8-1-15-1-12-2-5-2h-2l-2 10-2 15-1 17v32l1 10v11h-1l-2-16-1-15v-19l1-19 5-34 7-30 12-36 13-28 11-20 10-15 11-16 11-13z" fill="#08BEDF"/>
<path transform="translate(796,991)" d="m0 0 8 1 4 2 1 4 7 2v2l5 3 8 1v-2l11-1 3 2 14 2 7 2 23 3 7 1 4 2 7 1 3-3 5 3 13 2 5 1 7 1 5-1h23l4-1h6l3-1 12 3 3 1h11l11 3 10 3 9 6 5 3 6 3 14 8 8 3v2l9 1 22 11 7 3 2 3-11 9-7 5-11 5-9 3-6 1h-16l-19-3-20-6-24-10-16-8-21-11-24-14-22-12-16-7-4-1h-18l-11 5-8 7-7 10-8 17-5 15-2 9h-3l-5-8-13-31-10-31v-15z" fill="#01BD88"/>
<path transform="translate(1e3 895)" d="m0 0h13l23 3 30 2 21 1 23 2 21 2 26 4 4 2-1 3 18 2 20 3 6 2 12 2 14 5 6-2 8 4 1 2 10-3 2 2v3l-7 6-24 14-24 16v-8l-6-1-5 1-4-4-1-3-6-3h-10l-5 1-3-1-14-1-12-2-43-5v-2h-12l-4 1-1-2-8-1-13-1-10-1h-32l-12 2v12l-2 4 3 3-1 2-17-17-6-7-2-5-9-12v-3l-2-14h2l-1-4h2l1-2 5 1 1 3 6-1h22l-1-3z" fill="#07BEBD"/>
<path transform="translate(1472,1255)" d="m0 0h13l12 3 11 7 8 8 7 13 2 9v12l-3 13-6 11-10 10-14 7-5 1h-14l-13-4-10-7-8-9-6-12-2-9v-10l2-10 5-12 11-12 10-6z" fill="#434142"/>
<path transform="translate(1017,1255)" d="m0 0h13l11 3 8 4 10 9 6 9 4 10 1 5v12l-3 13-6 11-10 10-14 7-5 1h-14l-13-4-9-6-7-7-7-12-3-13 1-15 4-12 6-9 8-8 11-6z" fill="#434142"/>
<path transform="translate(786,1256)" d="m0 0h30l13 3 11 6 7 6 7 11 4 13v12l-3 12-7 12-10 9-11 5-14 3h-24l-8-2-3-7v-77l3-5z" fill="#434142"/>
<path transform="translate(1558,1256)" d="m0 0h41l8 3 6 4 6 9 2 6v11l-3 7 1 5 4 9 1 10-3 12-7 9-12 6-7 1h-32l-9-2-2-2-1-4v-78l3-5z" fill="#434142"/>
<path transform="translate(686,860)" d="m0 0h4v2l7 1 1 2 7-1h14l4 1v3h7l1-4 7-1 9-2 2-1 3 5v8l-3 22-1 15v49l2 20v6h-8l-16-8-8-6-7-7-9-14-7-16-3-9-4-27-2-22z" fill="#04BEA6"/>
<path transform="translate(1773,1256)" d="m0 0h32l9 2 9 5 8 9 4 11v14l-4 9-4 6 3 9 6 17-1 4-6 5-3 1h-7l-4-5-9-18v-2h-20v18l-3 5-1 1h-13l-4-3-1-3v-77l2-6z" fill="#434142"/>
<path transform="translate(893,1256)" d="m0 0h32l9 2 9 5 8 9 4 11v14l-4 10-4 5 3 9 6 17-1 4-6 5-3 1h-7l-4-5-9-19-20-1v18l-3 5-1 1h-13l-4-3-1-6v-75l2-5z" fill="#434142"/>
<path transform="translate(677,1256)" d="m0 0h9l6 4 15 20 14 19 5 7 2 1v-42l2-6 2-2 11-1 5 2 2 4v80l-4 5-9 1-5-2-10-10-14-19-10-13-4-6-2-1v39l-1 8-3 3-7 1-9-2-2-4v-80l4-5z" fill="#434142"/>
<path transform="translate(790,872)" d="m0 0 8 3 17 2h10l5 1 31 2 14 2 1-3 9 3v2h4v2l4-1 2 1h4l1-3h3l5 5 5 8 2 1v4h2l1 4h2v3h2l6 9 5 9 7 10 7 9 5 4 8 10 6 7-1 2-5-5v-2l-4-1-7-8-9-11-4-3v-2l-5-2-8-5-7-3h-13l-6-3-20-4-8-1-43-4h-9l-18-2-3-1-2-3-6-2-3 2-1 5h-1v-15l3-22z" fill="#07BEBD"/>
<path transform="translate(1155,1256)" d="m0 0h57l4 4v14l-2 3-3 1-43 1v11l30 1 3 1 2 6v8l-3 6-5 1-27 1v11l45 1 3 4v13l-3 4-7 1h-52l-7-2-2-4v-79l3-6z" fill="#434142"/>
<path transform="translate(381,1256)" d="m0 0h57l4 2 1 2v14l-3 3-3 1-42 1v11l31 1 3 3 1 10-2 8-8 1h-26l1 12 44 1 4 4v12l-3 5-6 1h-53l-7-2-2-9v-71l1-7 2-2z" fill="#434142"/>
<path transform="translate(1690,1256)" d="m0 0h7l5 4 8 16 22 45 7 16-1 6-8 5-7 1-5-5-8-15h-34l-9 17-4 3-9-2-7-6 2-9 12-25 16-33 7-14 3-3z" fill="#434142"/>
<path transform="translate(595,1256)" d="m0 0h8l5 4 8 15 13 28 11 22 5 13-2 6-10 5h-5l-4-5-8-15h-34l-8 15-5 5-7-1-6-4-3-3 1-7 12-25 19-39 5-10z" fill="#434142"/>
<path transform="translate(207,1256)" d="m0 0h7l5 4 19 38 11 23 6 14 1 6-5 5-8 3-5-1-6-9-5-10-35-1-2 6-7 13-3 2-6-1-6-3-4-4 2-9 16-33 11-23 8-16 3-3z" fill="#434142"/>
<path transform="translate(1269,1254)" d="m0 0h8l10 2 10 5 6 7-1 5-6 7-3 2-6-1-10-5h-7l-4 4v5l3 3 21 6 9 4 5 5 3 7 1 5-1 13-5 9-8 7-9 4-5 1h-12l-12-4-9-7-4-5-2-4 1-5 4-5 6-3 6 2 10 8 2 1h9l4-2 1-2v-7l-5-3-17-5-10-5-6-7-3-7v-13l4-9 5-6 11-6z" fill="#434142"/>
<path transform="translate(1373,1255)" d="m0 0h12l11 3 10 5 5 5-1 7-4 6h-2v2l-5 1-11-5-4-1h-9l-10 4-5 5-3 4-2 7v8l3 8 4 6 6 4 9 2 9-1 12-5h5l6 7 2 5-1 5-7 6-9 4-9 2h-10l-10-2-12-6-10-9-7-10-3-9-1-6v-10l2-10 7-14 7-7 14-8z" fill="#434142"/>
<path transform="translate(813,1572)" d="m0 0h14l10 4 8 7 6 12 1 5v8l-2 9-7 11-9 6-10 3h-7l-10-3-8-6-7-9-3-10 1-14 6-12 9-8z" fill="#434142"/>
<path transform="translate(290,1256)" d="m0 0h7l5 3 1 3 1 66 31 1 9 1 2 2v11l-2 4-10 1h-43l-8-2-2-4v-81l3-4z" fill="#434142"/>
<path transform="translate(515,1256)" d="m0 0h8l5 4 1 6v47l-2 14-5 9-5 5-9 6-7 2h-11l-11-4-8-6-4-7 1-6 8-7h6l11 7 7-1 5-5 1-9 1-50 4-4z" fill="#434142"/>
<path transform="translate(1156,1572)" d="m0 0 7 1 8 9 14 19 5 6 1-33 1-1h12l2 3v53l-2 5-2 2h-6l-8-7-9-11-12-16-2-1 1 2v13l-1 17-1 2h-11l-2-2-1-5v-49l2-5z" fill="#434142"/>
<path transform="translate(686,860)" d="m0 0h4v2l7 1 1 2 7-1h14l4 1v3h7l1-4 7-1 9-2 2-1 3 5v8l-3 22-1 15-1 31h-1l-1-29-1-5h-10l-8-2-15-5-10-4-5 1-4 1h-3-1l-2-22z" fill="#07BFBD"/>
<path transform="translate(1258,1571)" d="m0 0 12 1 10 5 4 5-2 4-4 5-6-1-5-2h-11l-7 4-3 5v13l4 6 3 3 10 2 6-3 1-4-1-2-10-2-2-5 1-6 1-1 15-1 10 2 1 2v23l-3 5-6 5-5 2-12 1-8-2-9-5-7-7-4-7-2-10 1-12 5-10 7-7 10-5z" fill="#434142"/>
<path transform="translate(1036,1573)" d="m0 0h12l2 7v17h22l1-21 2-3h11l2 5v50l-1 6-2 1h-7l-4-1-1-2-1-20-10-1h-11l-2 23-1 1h-12l-1-1-1-15v-40z" fill="#434142"/>
<path transform="translate(903,1572)" d="m0 0 5 1 4 5 11 22 12 26 1 5-4 4-9 1-7-12-1-1h-22l-5 8-3 5-8-1-5-5 5-12 14-29 7-14z" fill="#434142"/>
<path transform="translate(1474,1277)" d="m0 0h10l8 3 7 7 4 9v12l-3 7-5 7-9 5h-12l-8-4-7-8-3-8v-10l4-10 7-7z" fill="#FCFEFE"/>
<path transform="translate(1019,1277)" d="m0 0h10l8 3 7 7 3 6 1 4v10l-3 9-5 6-10 5h-11l-8-4-7-8-3-8v-10l3-8 7-8z" fill="#FCFEFE"/>
<path transform="translate(984,1572)" d="m0 0h12l10 4 5 4 1 4-5 7h-6l-8-3h-7l-8 4-4 6-1 8 2 7 5 5 4 2h11l7-3h5l4 6v5l-6 5-8 3-9 1-9-2-9-5-8-8-4-9-1-5v-8l3-11 7-9 10-6z" fill="#434142"/>
<path transform="translate(740,1572)" d="m0 0h12l10 4 5 4 1 4-5 7h-6l-8-3h-7l-8 4-4 6-1 9 3 7 5 5 2 1h12l7-3h5l5 8-3 5-8 5-12 2-10-2-10-6-8-9-3-7-1-5v-8l3-10 5-8 8-6z" fill="#434142"/>
<path transform="translate(801,1278)" d="m0 0h14l8 2 6 4 5 7 2 6v10l-5 10-7 6-5 2-7 1h-10l-2-1v-46z" fill="#FDFFFF"/>
<path transform="translate(1573,1278)" d="m0 0h22l4 3v8l-14 4-1 2v8l2 4 13 3 3 5-1 7-3 3-12 1h-10l-3-2z" fill="#FBFEFE"/>
<path transform="translate(1113,1573)" d="m0 0h12l2 5v42l-1 13-1 2h-9l-4-2v-59z" fill="#434142"/>
<path transform="translate(816,1587)" d="m0 0h9l8 5 3 5v14l-4 6-6 4-8 1-7-3-5-6-2-6 1-9 4-6 5-4z" fill="#FBFEFE"/>
<path transform="translate(907,1278)" d="m0 0h16l7 3 3 5v7l-5 6-9 2h-9l-4-2v-20z" fill="#FDFFFF"/>
<path transform="translate(1787,1278)" d="m0 0h15l7 2 3 3 1 9-3 5-5 3-10 1-8-1-1-1v-20z" fill="#FBFEFE"/>
<path transform="translate(1692,1294)" d="m0 0 3 1 5 11v4h-14l-1-2z" fill="#FDFFFF"/>
<path transform="translate(208,1294)" d="m0 0 4 1 5 11v3l-2 1h-12l-1-2 5-11z" fill="#FDFFFF"/>
<path transform="translate(598,1294)" d="m0 0h2l6 12v4h-14l1-6 4-9z" fill="#FBFEFE"/>
<path transform="translate(1210,1046)" d="m0 0 6 1 6 8-1 1h-7l-5-1-1-7z" fill="#01BD85"/>
<path transform="translate(903,1601)" d="m0 0 4 1 1 7-1 1h-6l-1-5z" fill="#FDFFFF"/>
<path transform="translate(1055,1042)" d="m0 0 5 2 15 8v1l-7-1v-2l-10-3z" fill="#06BEBF"/>
<path transform="translate(894,1024)" d="m0 0 8 1 8 5v2l-6-2-10-5z" fill="#06BEBE"/>
</svg>
