<?xml version="1.0" encoding="UTF-8"?>
<svg id="Capa_2" xmlns="http://www.w3.org/2000/svg" viewBox="0 0 357.56 202.97">
  <defs>
    <style>
      .cls-1 {
        fill: #f6f6f6;
      }
    </style>
  </defs>
  <g id="Logotipo_1_tinta">
    <g id="Blanco">
      <g>
        <g>
          <path class="cls-1" d="M19.17,190.39l-.61-3.05s-3.24,3.79-8.73,3.79-9.83-3.6-9.83-9.1,4.46-8.55,11.05-8.55c3.85,0,7.51,1.04,7.51,1.04v-1.95c0-4.03-2.87-5.5-6.53-5.5-5.62,0-8.12,3.54-8.12,3.54l-3.18-3.05s3.54-4.89,11.79-4.89c7.15,0,11.11,3.18,11.11,10.44v17.28h-4.46ZM18.56,178.67s-3.42-.92-7.15-.92c-3.91,0-6.17,1.04-6.17,4.21s2.26,4.89,5.56,4.89c3.11,0,6.11-1.53,7.76-3.3v-4.89Z"/>
          <path class="cls-1" d="M26.07,190.39v-42.75h5.13v42.75h-5.13Z"/>
          <path class="cls-1" d="M56.79,185.51s-3.42,5.62-11.36,5.62c-7.45,0-13.19-4.89-13.19-14.05s6.23-14.41,13.37-14.41,12.27,4.7,12.27,15.45h-20.4c0,5.31,2.87,8.61,8.06,8.61,5.56,0,7.82-3.85,7.82-3.85l3.42,2.63ZM52.51,173.97c-.49-4.7-3.36-7.27-7.27-7.27s-6.96,2.56-7.57,7.27h14.84Z"/>
          <path class="cls-1" d="M54.4,198.39c3.66-.37,4.09-2.02,4.09-5.43v-29.56h5.13v30.29c0,5.98-3.05,9.28-9.22,9.28v-4.58ZM57.33,154.24c0-2.2,1.71-3.79,3.79-3.79s3.79,1.59,3.79,3.79-1.71,3.79-3.79,3.79-3.79-1.59-3.79-3.79Z"/>
          <path class="cls-1" d="M83.53,190.39l-.61-3.05s-3.24,3.79-8.73,3.79-9.83-3.6-9.83-9.1,4.46-8.55,11.05-8.55c3.85,0,7.51,1.04,7.51,1.04v-1.95c0-4.03-2.87-5.5-6.53-5.5-5.62,0-8.12,3.54-8.12,3.54l-3.18-3.05s3.54-4.89,11.79-4.89c7.15,0,11.11,3.18,11.11,10.44v17.28h-4.46ZM82.92,178.67s-3.42-.92-7.15-.92c-3.91,0-6.17,1.04-6.17,4.21s2.26,4.89,5.56,4.89c3.11,0,6.11-1.53,7.76-3.3v-4.89Z"/>
          <path class="cls-1" d="M108.2,190.39v-15.75c0-5.98-2.63-7.21-5.44-7.21s-7.21,2.08-7.21,8.18v14.78h-5.13v-26.99h4.52l.61,3.79s2.63-4.52,8.55-4.52c5.37,0,9.22,3.3,9.22,10.01v17.71h-5.13Z"/>
          <path class="cls-1" d="M136.29,190.39l-.61-3.66s-2.14,4.4-8.73,4.4c-8.31,0-12.88-6.84-12.88-14.11s4.89-14.35,13.07-14.35c6.6,0,8.55,4.4,8.55,4.4v-19.42h5.13v42.75h-4.52ZM135.8,176.9c0-5.37-2.44-9.83-8-9.83s-8.49,4.46-8.49,9.83,2.93,9.83,8.49,9.83,8-4.46,8-9.83Z"/>
          <path class="cls-1" d="M143.49,190.39v-26.99h4.52l.61,4.52s1.22-4.89,6.41-4.89c3.66,0,5.07,2.56,5.07,2.56l-2.69,4.27s-1.22-1.71-3.79-1.71-5.01,1.83-5.01,8.18v14.04h-5.13Z"/>
          <path class="cls-1" d="M156.49,176.9c0-7.51,4.64-14.23,13.74-14.23s13.74,6.72,13.74,14.23-4.64,14.23-13.74,14.23-13.74-6.72-13.74-14.23ZM178.72,176.9c0-5.43-2.93-9.83-8.49-9.83s-8.49,4.4-8.49,9.83,2.93,9.83,8.49,9.83,8.49-4.4,8.49-9.83Z"/>
          <path class="cls-1" d="M216.7,185.51s-3.42,5.62-11.36,5.62c-7.45,0-13.19-4.89-13.19-14.05s6.23-14.41,13.37-14.41,12.27,4.7,12.27,15.45h-20.4c0,5.31,2.87,8.61,8.06,8.61,5.56,0,7.82-3.85,7.82-3.85l3.42,2.63ZM212.43,173.97c-.49-4.7-3.36-7.27-7.27-7.27s-6.96,2.56-7.57,7.27h14.84Z"/>
          <path class="cls-1" d="M224.51,178.12c-3.85-1.28-7.33-3.3-7.33-7.69s3.66-7.76,9.83-7.76c6.78,0,9.95,3.97,9.95,3.97l-2.69,3.42s-2.44-3.24-7.57-3.24c-2.63,0-4.64.85-4.64,3.05s1.89,3.05,5.25,4.21l2.44.85c3.66,1.28,7.45,3.24,7.45,8.06s-3.6,8.12-10.14,8.12c-8,0-10.93-5.07-10.93-5.07l2.81-3.3s2.5,4.21,8.06,4.21c2.87,0,5.19-1.1,5.19-3.66,0-2.26-1.77-3.24-5.13-4.34l-2.56-.85Z"/>
          <path class="cls-1" d="M262.37,185.39s-3.48,5.74-12.09,5.74c-9.47,0-13.86-6.9-13.86-14.47,0-9.53,7.02-13.98,14.17-13.98,8.12,0,11.54,5.74,11.54,5.74l-3.24,3.24s-2.2-4.34-8.43-4.34c-5.37,0-8.79,3.24-8.79,9.34,0,5.37,2.63,9.83,8.98,9.83s8.49-4.34,8.49-4.34l3.24,3.24Z"/>
          <path class="cls-1" d="M260.72,176.9c0-7.51,4.64-14.23,13.74-14.23s13.74,6.72,13.74,14.23-4.64,14.23-13.74,14.23-13.74-6.72-13.74-14.23ZM282.95,176.9c0-5.43-2.93-9.83-8.49-9.83s-8.49,4.4-8.49,9.83,2.93,9.83,8.49,9.83,8.49-4.4,8.49-9.83Z"/>
          <path class="cls-1" d="M289.17,190.39v-42.75h5.13v19.11s2.44-4.09,8.73-4.09c8.12,0,12.88,6.84,12.88,14.23s-4.76,14.23-13.19,14.23c-6.35,0-8.43-4.4-8.43-4.4l-.61,3.66h-4.52ZM310.67,176.9c0-5.37-2.93-9.83-8.49-9.83s-8,4.46-8,9.83,2.44,9.83,8,9.83,8.49-4.46,8.49-9.83Z"/>
          <path class="cls-1" d="M334.05,190.39l-.61-3.05s-3.24,3.79-8.73,3.79-9.83-3.6-9.83-9.1,4.46-8.55,11.05-8.55c3.85,0,7.51,1.04,7.51,1.04v-1.95c0-4.03-2.87-5.5-6.53-5.5-5.62,0-8.12,3.54-8.12,3.54l-3.18-3.05s3.54-4.89,11.79-4.89c7.15,0,11.11,3.18,11.11,10.44v17.28h-4.46ZM333.44,178.67s-3.42-.92-7.15-.92c-3.91,0-6.17,1.04-6.17,4.21s2.26,4.89,5.56,4.89c3.11,0,6.11-1.53,7.76-3.3v-4.89Z"/>
          <path class="cls-1" d="M340.95,190.39v-26.99h4.52l.61,4.52s1.22-4.89,6.41-4.89c3.66,0,5.07,2.56,5.07,2.56l-2.69,4.27s-1.22-1.71-3.79-1.71-5.01,1.83-5.01,8.18v14.04h-5.13Z"/>
        </g>
        <g>
          <path class="cls-1" d="M228.37,0c-32.69,0-63.77,21.17-63.77,64.57s28.94,63.5,65.38,63.5c25.71,0,41.39-10.58,48.71-17.28,2.82-2.58,2.75-7.03-.16-9.5l-11.55-9.77c-2.24-1.89-5.49-2.02-7.83-.26-4.89,3.68-13.96,7.86-26.76,7.86s-22.35-4.15-27.07-16.26c-.98-2.53-1.6-5.17-1.91-7.86h76.92c3.38,0,6.16-2.66,6.31-6.04.08-1.74.14-3.71.14-5.75,0-40.99-24.65-63.23-58.41-63.23ZM203.24,53.05c.19-3.72.94-7.4,2.31-10.88,3.88-9.81,11.08-14.85,21.48-14.85,13.66,0,21.7,8.57,21.7,23.58v2.14h-45.49Z"/>
          <path class="cls-1" d="M177.87,22.82C166.03,7.67,146.92,0,125.13,0c-25.71,0-41.39,10.58-48.71,17.28-2.82,2.58-2.75,7.03.16,9.5l11.55,9.77c2.24,1.89,5.49,2.02,7.83.26,4.89-3.68,13.96-7.86,26.76-7.86s22.35,4.15,27.07,16.26c.98,2.53,1.6,5.17,1.91,7.86h-76.92c-3.38,0-6.16,2.66-6.31,6.04-.08,1.74-.14,3.71-.14,5.75,0,40.99,24.65,63.23,58.41,63.23,18.28,0,36.05-6.62,48.17-20.05-7.22-10.08-12.42-24.95-12.42-40.92,0-18.99,5.95-33.72,15.37-44.28ZM149.56,85.9c-3.88,9.81-11.08,14.85-21.48,14.85-13.66,0-21.7-8.57-21.7-23.58v-2.14h45.49c-.19,3.72-.94,7.4-2.31,10.88Z"/>
        </g>
      </g>
    </g>
  </g>
</svg>